# AST/ASF file generated using VICON BodyLanguage
# -----------------------------------------------
:version 1.10
:name VICON
:units
  mass 1.0
  length 0.45
  angle deg
:documentation
   .ast/.asf automatically generated from VICON data using
   VICON BodyBuilder and BodyLanguage model FoxedUp or BRILLIANT.MOD
:root
   order TX TY TZ RX RY RZ
   axis XYZ
   position 0 0 0  
   orientation 0 0 0 
:bonedata
  begin
     id 1 
     name lhipjoint
     direction 0.54267 -0.795011 0.271047 
     length 2.39899 
     axis 0 0 0  XYZ
  end
  begin
     id 2 
     name lfemur
     direction 0.34202 -0.939693 0  
     length 7.49701  
     axis 0 0 20  XYZ
    dof rx ry rz
    limits (-160.0 20.0)
           (-70.0 70.0)
           (-60.0 70.0)
  end
  begin
     id 3 
     name ltibia
     direction 0.34202 -0.939693 0   
     length 8.1668   
     axis 0 0 20   XYZ
    dof rx
    limits (-10.0 170.0)
  end
  begin
     id 4 
     name lfoot
     direction 0.0736283 -0.202292 0.976554   
     length 2.13544   
     axis -90 7.62852e-016 20   XYZ
    dof rx rz
    limits (-45.0 90.0)
           (-70.0 20.0)
  end
  begin
     id 5 
     name ltoes
     direction 1.53557e-011 -4.22024e-011 1   
     length 1.07411   
     axis -90 7.62852e-016 20   XYZ
    dof rx
    limits (-90.0 20.0)
  end
  begin
     id 6 
     name rhipjoint
     direction -0.538061 -0.797813 0.272002   
     length 2.39057  
     axis 0 0 0  XYZ 
  end
  begin
     id 7 
     name rfemur
     direction -0.34202 -0.939693 0   
     length 7.50152   
     axis 0 0 -20   XYZ
    dof rx ry rz
    limits (-160.0 20.0)
           (-70.0 70.0)
           (-70.0 60.0)
  end
  begin
     id 8 
     name rtibia
     direction -0.34202 -0.939693 0   
     length 8.05793   
     axis 0 0 -20   XYZ
    dof rx
    limits (-10.0 170.0)
 end
 begin
     id 9 
     name rfoot
     direction -0.0765195 -0.210236 0.974652   
     length 2.28698  
     axis -90 -7.62852e-016 -20   XYZ
    dof rx rz
    limits (-45.0 90.0)
           (-20.0 70.0)
  end
  begin
     id 10 
     name rtoes
     direction -1.53542e-011 -4.21847e-011 1   
     length 1.14762   
     axis -90 -7.62852e-016 -20   XYZ
    dof rx
    limits (-90.0 20.0)
  end
  begin
     id 11 
     name lowerback
     direction -0.0217239 0.996592 -0.0795765   
     length 2.08176   
     axis 0 0 0   XYZ
    dof rx ry rz
    limits (-20.0 45.0)
           (-30.0 30.0)
           (-30.0 30.0)
  end
  begin
     id 12 
     name upperback
     direction -0.00563773 0.999651 -0.0258155   
     length 2.08898   
     axis 0 0 0   XYZ
    dof rx ry rz
    limits (-20.0 45.0)
           (-30.0 30.0)
           (-30.0 30.0)
  end
  begin
     id 13 
     name thorax
     direction 0.0032706 0.999923 0.0119599   
     length 2.0968   
     axis 0 0 0   XYZ
    dof rx ry rz
    limits (-20.0 45.0)
           (-30.0 30.0)
           (-30.0 30.0)
  end
  begin
     id 14 
     name lowerneck
     direction -0.0285886 0.99568 0.0883427   
     length 1.81272   
     axis 0 0 0   XYZ
    dof rx ry rz
    limits (-20.0 45.0)
           (-30.0 30.0)
           (-30.0 30.0)
  end
  begin
     id 15 
     name upperneck
     direction 0.0807535 0.97985 -0.18268   
     length 1.82518   
     axis 0 0 0   XYZ
    dof rx ry rz
    limits (-20.0 45.0)
           (-30.0 30.0)
           (-30.0 30.0)
  end
  begin
     id 16
     name head
     direction 0.0236605 0.997053 -0.0729767  
     length 1.84443  
     axis 0 0 0   XYZ
    dof rx ry rz
    limits (-20.0 45.0)
           (-30.0 30.0)
           (-30.0 30.0)
  end
  begin
     id 17 
     name lclavicle
     direction 0.918986 0.39378 -0.0200683  
     length 3.27822  
     axis 0 0 0   XYZ
    dof ry rz
    limits (-20.0 10.0)
           (0.0 20.0)
  end
  begin
     id 18 
     name lhumerus
     direction 1 -4.4897e-011 2.09544e-027   
     length 5.5568   
     axis 180 -30 -90   XYZ
    dof rx ry rz
    limits (-60.0 90.0)
           (-90.0 90.0)
           (-90.0 90.0)
  end
  begin
     id 19
     name lradius
     direction 1 -4.48957e-011 -1.27696e-026   
     length 3.63979   
     axis 180 -30 -90   XYZ
    dof rx
    limits (-10.0 170.0)
  end
  begin
     id 20
     name lwrist
     direction 1 -4.49001e-011 -1.49001e-026   
     length 1.8199   
     axis 9.0955e-015 90 90   XYZ
    dof ry
    limits (-180.0 0.0)
 end
  begin
     id 21 
     name lhand
     direction 1 -4.48709e-011 -2.9758e-026   
     length 0.569419   
     axis 1.90115e-014 90 90   XYZ
    dof rx rz
    limits (-90.0 90.0)
           (-45.0 45.0)
  end
  begin
     id 22 
     name lfingers
     direction 1 -4.49175e-011 -5.96505e-026   
     length 0.45908   
     axis 3.80223e-014 90 90   XYZ
    dof rx
    limits (0.0 90.0)
  end
  begin
     id 23
     name lthumb
     direction 0.707107 -6.34864e-011 0.707107   
     length 0.65915   
     axis -90 45 -3.84942e-014   XYZ
    dof rx rz
    limits (-45.0 45.0)
           (-45.0 45.0)
  end
  begin
     id 24 
     name rclavicle
     direction -0.911913 0.396426 -0.106115   
     length 3.46301  
     axis 0 0 0   XYZ 
    dof ry rz
    limits (-10.0 20.0)
           (-20.0 0.0)
  end
  begin
     id 25 
     name rhumerus
     direction -1 -4.48965e-011 7.78516e-028  
     length 5.34339   
     axis 180 30 90   XYZ
    dof rx ry rz
    limits (-90.0 60.0)
           (-90.0 90.0)
           (-90.0 90.0)
  end
  begin
     id 26 
     name rradius
     direction -1 -4.48948e-011 -5.79823e-027   
     length 3.65101   
     axis 180 30 90   XYZ
    dof rx
    limits (-10.0 170.0)
  end
  begin
     id 27 
     name rwrist
     direction -1 -4.48995e-011 -1.48996e-026   
     length 1.8255   
     axis 9.0955e-015 -90 -90   XYZ
    dof ry
    limits (-180.0 0.0)
  end
  begin
     id 28
     name rhand
     direction -1 -4.48957e-011 -2.97937e-026   
     length 0.694249   
     axis 1.90115e-014 -90 -90   XYZ
    dof rx rz
    limits (-90.0 90.0)
           (-45.0 45.0)
  end
  begin
     id 29
     name rfingers
     direction -1 -4.4898e-011 -5.95943e-026   
     length 0.559721   
     axis 3.80223e-014 -90 -90   XYZ
    dof rx
    limits (0.0 90.0)
  end
  begin
     id 30
     name rthumb
     direction -0.707107 -6.34969e-011 0.707107   
     length 0.803651   
     axis -90 -45 3.84942e-014   XYZ
    dof rx rz
    limits (-45.0 45.0)
           (-45.0 45.0)
  end
:hierarchy
  begin
    root lhipjoint rhipjoint lowerback
    lhipjoint lfemur
    lfemur ltibia
    ltibia lfoot
    lfoot ltoes
    rhipjoint rfemur
    rfemur rtibia
    rtibia rfoot
    rfoot rtoes
    lowerback upperback
    upperback thorax
    thorax lowerneck lclavicle rclavicle
    lowerneck upperneck
    upperneck head
    lclavicle lhumerus
    lhumerus lradius
    lradius lwrist
    lwrist lhand lthumb
    lhand lfingers
    rclavicle rhumerus
    rhumerus rradius
    rradius rwrist
    rwrist rhand rthumb
    rhand rfingers
  end

#!OML:ASF H:\Terrain\Walking\May29\JustinRory\rory.ASF
:FULLY-SPECIFIED
:DEGREES
431
root 17.9926 10.402 1.17286 -389.548 -75.6741 366.828
lowerback 42.4903 0.537258 -1.36601
upperback 17.6388 -2.27612 0.630631
thorax -0.375325 -2.29971 2.15817
lowerneck 4.43395 -21.8237 -12.6334
upperneck 1.8526 -31.7355 27.3001
head 6.46467 -15.8589 7.4071
rclavicle 7.25564e-015 9.0447e-015
rhumerus 54.4743 15.8888 -64.5655
rradius 50.8251
rwrist -2.50835
rhand 10.5147 31.1967
rfingers 7.12502
rthumb 35.6143 4.78633
lclavicle 7.25564e-015 9.0447e-015
lhumerus 37.9622 -9.53717 30.8927
lradius 72.6387
lwrist 14.902
lhand -9.60156 20.6148
lfingers 7.12502
lthumb 16.3673 -310.056
rfemur -75.8086 -30.6321 36.3219
rtibia 119.562
rfoot -20.9484 -38.0572
rtoes 30.3419
lfemur -66.3797 12.9243 -2.08659
ltibia 96.6229
lfoot 2.92178 -20.3324
ltoes -14.7152
432
root 18.0184 10.3985 1.16222 -387.965 -75.8921 364.723
lowerback 42.044 0.374997 -0.662375
upperback 17.7478 -2.19277 0.816904
thorax -0.14432 -2.22915 1.95408
lowerneck 3.72153 -21.4322 -12.7732
upperneck 2.98626 -31.3986 26.8909
head 6.81198 -15.5599 7.26719
rclavicle -8.89561e-015 1.53064e-014
rhumerus 54.0329 14.4367 -67.7447
rradius 51.2543
rwrist -1.98838
rhand 9.22611 31.0727
rfingers 7.12502
rthumb 34.392 4.37677
lclavicle -8.89561e-015 1.53064e-014
lhumerus 37.6007 -10.0321 31.9037
lradius 73.5343
lwrist 14.5452
lhand -9.45399 20.9601
lfingers 7.12502
lthumb 16.5094 -309.722
rfemur -75.7646 -30.4333 36.7622
rtibia 119.69
rfoot -19.3005 -38.0262
rtoes 31.4544
lfemur -66.0312 13.0623 -1.38004
ltibia 96.5028
lfoot 3.46783 -20.5969
ltoes -13.792
433
root 18.048 10.4 1.1463 -388.512 -76.0608 364.696
lowerback 41.8809 0.447653 -0.565518
upperback 17.7895 -2.06836 0.864091
thorax -0.0575664 -2.16803 1.90704
lowerneck 2.87332 -21.0907 -12.1645
upperneck 4.22394 -31.0005 25.8465
head 6.96246 -15.2205 6.88166
rclavicle 1.27222e-014 -7.05686e-015
rhumerus 53.5316 13.2384 -71.6609
rradius 51.8152
rwrist -1.2752
rhand 7.6508 31.2285
rfingers 7.12502
rthumb 32.8949 4.20622
lclavicle 1.27222e-014 -7.05686e-015
lhumerus 37.1373 -10.582 32.7188
lradius 74.3655
lwrist 14.0208
lhand -9.59144 20.7935
lfingers 7.12502
lthumb 16.377 -309.878
rfemur -75.7309 -30.2808 36.6705
rtibia 119.88
rfoot -17.5223 -37.82
rtoes 32.9286
lfemur -65.3656 13.1916 -1.14883
ltibia 96.31
lfoot 4.11618 -20.6724
ltoes -13.4065
434
root 18.0733 10.4013 1.13043 -390.669 -76.015 366.412
lowerback 41.7883 0.648543 -0.86427
upperback 17.6992 -1.91457 0.807223
thorax -0.135419 -2.09789 1.94879
lowerneck 2.11768 -20.7102 -11.6715
upperneck 5.61378 -30.6294 24.9388
head 7.20801 -14.8967 6.5454
rclavicle 1.12313e-014 2.68359e-015
rhumerus 52.8466 11.2362 -71.3471
rradius 54.1034
rwrist -5.33092
rhand 5.69073 31.3073
rfingers 7.12502
rthumb 31.0286 3.91129
lclavicle 1.12313e-014 2.68359e-015
lhumerus 36.7255 -11.2639 33.4823
lradius 75.0803
lwrist 13.5526
lhand -9.97167 20.2404
lfingers 7.12502
lthumb 16.0109 -310.401
rfemur -75.8858 -30.1576 36.0288
rtibia 120.133
rfoot -15.9113 -37.3139
rtoes 33.6194
lfemur -64.6807 13.224 -1.41266
ltibia 96.0913
lfoot 5.12437 -20.602
ltoes -12.0852
435
root 18.0898 10.396 1.1174 -392.474 -75.9117 367.967
lowerback 41.4757 0.744904 -0.859886
upperback 17.5863 -1.7576 0.638378
thorax -0.185273 -1.98842 1.71342
lowerneck 1.35357 -20.2907 -11.4323
upperneck 7.08343 -30.2955 24.3443
head 7.59779 -14.5881 6.31019
rclavicle -4.47266e-015 5.96354e-016
rhumerus 52.0525 9.38024 -72.1023
rradius 55.947
rwrist -8.62989
rhand 3.14636 31.2625
rfingers 7.12502
rthumb 28.6004 3.43077
lclavicle -4.47266e-015 5.96354e-016
lhumerus 36.383 -12.1082 34.4127
lradius 75.9209
lwrist 13.176
lhand -10.3953 20.0347
lfingers 7.12502
lthumb 15.6029 -310.575
rfemur -76.0528 -29.8926 35.4116
rtibia 120.251
rfoot -14.8664 -36.6665
rtoes 33.8028
lfemur -64.3228 13.3484 -1.71557
ltibia 95.9642
lfoot 5.88596 -20.5928
ltoes -10.4386
436
root 18.1084 10.3944 1.10534 -393.533 -75.9567 368.672
lowerback 41.2064 0.793627 -0.745169
upperback 17.5573 -1.63783 0.534727
thorax -0.150174 -1.90621 1.50127
lowerneck 0.309553 -19.7884 -11.0721
upperneck 8.6725 -29.8378 23.6331
head 8.02109 -14.1973 6.0231
rclavicle 9.93923e-017 1.2921e-014
rhumerus 51.3942 7.093 -77.0878
rradius 57.5987
rwrist -8.89109
rhand 2.96695 31.5995
rfingers 7.12502
rthumb 28.429 3.73898
lclavicle 9.93923e-017 1.2921e-014
lhumerus 35.7354 -12.7219 35.5243
lradius 76.8718
lwrist 12.9728
lhand -10.4087 20.1292
lfingers 7.12502
lthumb 15.59 -310.479
rfemur -75.9116 -29.6303 35.0155
rtibia 120.165
rfoot -14.0816 -35.8285
rtoes 34.0727
lfemur -63.8746 13.5673 -1.80627
ltibia 95.842
lfoot 6.13747 -20.5007
ltoes -8.42637
437
root 18.1332 10.4138 1.09615 -391.799 -76.5121 366.602
lowerback 40.9207 0.594595 -0.0500216
upperback 17.4639 -1.6038 0.604436
thorax -0.180873 -1.8414 1.20579
lowerneck -0.783779 -19.1152 -10.7956
upperneck 10.4357 -29.1432 22.7656
head 8.46574 -13.6946 5.74257
rclavicle -5.57591e-014 1.74931e-014
rhumerus 51.2389 6.39382 -77.5989
rradius 59.2797
rwrist -13.7247
rhand 0.468748 31.1791
rfingers 7.12502
rthumb 26.0393 2.94366
lclavicle -5.57591e-014 1.74931e-014
lhumerus 34.5732 -13.0879 36.6953
lradius 77.8852
lwrist 12.9701
lhand -10.3264 19.8382
lfingers 7.12502
lthumb 15.6693 -310.776
rfemur -75.5457 -28.9852 35.4199
rtibia 119.819
rfoot -13.4136 -34.7092
rtoes 33.4929
lfemur -63.5176 14.0015 -1.00386
ltibia 95.7098
lfoot 6.33335 -20.4684
ltoes -6.04021
438
root 18.1576 10.4386 1.09401 -388.509 -77.2908 363.173
lowerback 40.3919 0.303939 0.970686
upperback 17.3426 -1.55576 0.760167
thorax -0.168371 -1.74963 0.824553
lowerneck -1.6066 -18.3903 -10.9683
upperneck 12.1075 -28.4281 22.2687
head 8.9807 -13.218 5.66026
rclavicle -1.08338e-014 1.17283e-014
rhumerus 51.0062 5.45117 -81.1558
rradius 61.1047
rwrist -16.2433
rhand -0.908102 31.5003
rfingers 7.12502
rthumb 24.7203 3.07746
lclavicle -1.08338e-014 1.17283e-014
lhumerus 33.2059 -13.4377 38.0588
lradius 78.9665
lwrist 12.8181
lhand -11.04 19.9064
lfingers 7.12502
lthumb 14.982 -310.656
rfemur -75.221 -27.9545 36.1397
rtibia 119.333
rfoot -13.035 -33.3642
rtoes 31.6628
lfemur -63.507 14.6135 0.181849
ltibia 95.7006
lfoot 6.15992 -20.8166
ltoes -6.57632
439
root 18.1768 10.4431 1.09791 -387.685 -77.6403 362.229
lowerback 39.9335 0.282904 1.44753
upperback 17.2786 -1.38367 0.861182
thorax -0.105648 -1.62726 0.621928
lowerneck -2.34292 -17.8175 -10.9213
upperneck 13.414 -27.8735 21.936
head 9.39326 -12.8381 5.58905
rclavicle 4.96962e-015 -1.8487e-014
rhumerus 50.8486 4.55587 -82.7968
rradius 63.189
rwrist -20.3062
rhand -2.9019 31.2167
rfingers 7.12502
rthumb 22.8081 2.54517
lclavicle 4.96962e-015 -1.8487e-014
lhumerus 32.1971 -13.8829 39.4994
lradius 80.0725
lwrist 12.7144
lhand -11.6657 20.2624
lfingers 7.12502
lthumb 14.3791 -310.256
rfemur -75.0658 -27.2103 35.9975
rtibia 118.97
rfoot -12.8678 -31.7343
rtoes 29.7654
lfemur -63.4416 14.8956 0.585005
ltibia 95.7311
lfoot 5.66733 -21.2613
ltoes -8.28721
440
root 18.1889 10.4364 1.10667 -388.855 -77.5644 363.278
lowerback 39.5344 0.329988 1.55599
upperback 17.2621 -1.26619 0.835696
thorax -0.00682601 -1.54677 0.493548
lowerneck -3.21037 -17.2959 -10.5097
upperneck 14.5087 -27.3163 21.5048
head 9.69352 -12.4542 5.43479
rclavicle 1.45113e-014 1.78906e-014
rhumerus 50.8575 3.4689 -84.6903
rradius 65.329
rwrist -24.137
rhand -4.26159 31.0322
rfingers 7.12502
rthumb 21.5027 2.20571
lclavicle 1.45113e-014 1.78906e-014
lhumerus 31.4054 -14.3764 40.8796
lradius 81.2462
lwrist 12.8427
lhand -11.4349 20.1553
lfingers 7.12502
lthumb 14.6016 -310.379
rfemur -74.9621 -26.8467 35.1486
rtibia 118.638
rfoot -12.8445 -30.2353
rtoes 29.9043
lfemur -63.3161 14.7719 0.306236
ltibia 95.7307
lfoot 5.40729 -21.3323
ltoes -8.58182
441
root 18.2005 10.4247 1.11429 -392.304 -77.1961 366.445
lowerback 39.3679 0.365841 1.03057
upperback 17.268 -1.40256 0.689285
thorax 0.0468777 -1.63476 0.651041
lowerneck -4.01453 -16.5997 -10.585
upperneck 15.6234 -26.5437 21.307
head 10.0715 -11.9888 5.46916
rclavicle 6.95746e-015 -1.15295e-014
rhumerus 51.0455 2.88453 -86.9992
rradius 67.3904
rwrist -27.0379
rhand -3.84097 31.5821
rfingers 7.12502
rthumb 21.9067 2.80235
lclavicle 6.95746e-015 -1.15295e-014
lhumerus 30.0809 -14.5657 42.4559
lradius 82.3753
lwrist 12.8501
lhand -11.2878 19.7745
lfingers 7.12502
lthumb 14.7433 -310.77
rfemur -74.6476 -26.8436 33.6605
rtibia 118.242
rfoot -13.1467 -28.5691
rtoes 31.4874
lfemur -62.8532 14.4441 -0.549552
ltibia 95.6624
lfoot 5.68094 -21.0724
ltoes -8.11825
442
root 18.215 10.4105 1.11458 -395.893 -76.8359 369.51
lowerback 39.5581 0.485737 0.300021
upperback 17.2263 -1.51294 0.654687
thorax -0.0523022 -1.73756 1.03138
lowerneck -4.74032 -15.8658 -10.6544
upperneck 16.7631 -25.6547 20.9017
head 10.3919 -11.4923 5.47281
rclavicle -1.19271e-015 1.03368e-014
rhumerus 51.1305 2.40959 -89.3386
rradius 69.6693
rwrist -29.3416
rhand -2.47151 31.8918
rfingers 7.12502
rthumb 23.2211 3.27176
lclavicle -1.19271e-015 1.03368e-014
lhumerus 28.3946 -14.6037 44.2033
lradius 83.4607
lwrist 13.113
lhand -11.4555 19.448
lfingers 7.12502
lthumb 14.5817 -311.085
rfemur -74.0164 -26.8663 32.1545
rtibia 117.697
rfoot -13.7536 -26.487
rtoes 31.2169
lfemur -62.019 14.1168 -1.29096
ltibia 95.5077
lfoot 6.07739 -20.9588
ltoes -7.776
443
root 18.2336 10.4134 1.11839 -395.397 -77.1932 368.634
lowerback 39.572 0.455181 0.906095
upperback 17.1468 -1.32258 0.753723
thorax -0.147876 -1.6056 0.764113
lowerneck -5.5745 -15.3492 -10.0757
upperneck 17.852 -25.0267 20.184
head 10.6295 -11.0985 5.22197
rclavicle 1.09332e-014 -2.78299e-015
rhumerus 51.1673 1.36041 -91.3273
rradius 72.1446
rwrist -31.4088
rhand -3.61078 32.063
rfingers 7.12502
rthumb 22.1277 3.30923
lclavicle 1.09332e-014 -2.78299e-015
lhumerus 27.1597 -15.0591 45.7294
lradius 84.6762
lwrist 13.7934
lhand -11.9051 19.6849
lfingers 7.12502
lthumb 14.1484 -310.817
rfemur -73.3587 -26.2465 32.0345
rtibia 116.801
rfoot -14.1061 -24.9712
rtoes 28.6902
lfemur -61.4687 14.2023 -0.795449
ltibia 95.3993
lfoot 5.77873 -21.2759
ltoes -8.87637
444
root 18.2534 10.4211 1.13515 -393.083 -77.8062 366.215
lowerback 39.3651 0.195434 2.32532
upperback 16.9897 -1.11575 0.666231
thorax -0.259505 -1.39153 -0.125168
lowerneck -6.25102 -14.9086 -9.30796
upperneck 18.8332 -24.5918 19.6906
head 10.8576 -10.7899 4.9929
rclavicle 5.96354e-015 -2.74323e-014
rhumerus 51.233 0.145568 -92.7705
rradius 74.4475
rwrist -33.1113
rhand -6.62963 32.7254
rfingers 7.12502
rthumb 19.227 3.65588
lclavicle 5.96354e-015 -2.74323e-014
lhumerus 26.1745 -15.7539 46.9865
lradius 85.9222
lwrist 14.1228
lhand -12.0558 20.0689
lfingers 7.12502
lthumb 14.0032 -310.423
rfemur -72.9335 -25.3176 32.4244
rtibia 115.726
rfoot -14.3488 -23.5715
rtoes 25.5868
lfemur -61.3243 14.4729 0.0492196
ltibia 95.4054
lfoot 5.37678 -21.5022
ltoes -9.8811
445
root 18.2669 10.4143 1.15499 -392.974 -77.8004 365.97
lowerback 39.2536 -0.0535181 3.00017
upperback 16.8097 -1.15403 0.50257
thorax -0.426099 -1.34345 -0.628979
lowerneck -6.69218 -14.3464 -8.82041
upperneck 19.7497 -23.9656 19.2781
head 11.0438 -10.4285 4.88508
rclavicle -6.36111e-015 -1.74931e-014
rhumerus 51.4362 -0.766658 -93.828
rradius 76.3908
rwrist -35.2202
rhand -8.60027 33.5623
rfingers 7.12502
rthumb 17.3312 4.31505
lclavicle -6.36111e-015 -1.74931e-014
lhumerus 24.802 -16.023 48.4267
lradius 87.0641
lwrist 13.8234
lhand -10.9456 19.6572
lfingers 7.12502
lthumb 15.0729 -310.912
rfemur -72.6693 -24.7928 31.8868
rtibia 114.754
rfoot -14.5897 -21.7892
rtoes 23.3793
lfemur -61.2796 14.2891 0.0262123
ltibia 95.471
lfoot 5.26123 -21.401
ltoes -10.232
